<?xml version="1.0" standalone="no"?>
<!DOCTYPE svg PUBLIC "-//W3C//DTD SVG 20010904//EN"
 "http://www.w3.org/TR/2001/REC-SVG-20010904/DTD/svg10.dtd">
<svg version="1.0" xmlns="http://www.w3.org/2000/svg"
 width="300.000000pt" height="300.000000pt" viewBox="0 0 300.000000 300.000000"
 preserveAspectRatio="xMidYMid meet">
<metadata>
Created by potrace 1.14, written by Peter Selinger 2001-2017
</metadata>
<g transform="translate(0.000000,300.000000) scale(0.100000,-0.100000)"
fill="#000000" stroke="none">
<path d="M513 2565 c-23 -16 -253 -297 -272 -332 -29 -56 -19 -77 131 -262 37
-46 68 -89 68 -96 0 -7 -14 -72 -31 -143 l-30 -129 -137 -64 c-153 -72 -188
-96 -197 -139 -4 -19 8 -94 35 -212 48 -214 54 -232 88 -258 22 -18 41 -20
197 -20 l172 0 88 -112 88 -111 -37 -161 c-42 -183 -41 -177 -21 -215 20 -39
367 -211 425 -211 50 0 68 16 183 160 l92 115 145 -3 145 -2 101 -129 c131
-165 138 -168 256 -115 168 75 317 154 332 176 24 34 19 53 -6 23 -13 -14 -94
-58 -188 -101 -152 -70 -170 -76 -225 -74 -71 2 -69 0 -187 145 -49 61 -93
110 -98 110 -5 0 -50 65 -102 145 -92 142 -244 370 -335 500 -87 125 -156 289
-168 396 -26 225 134 450 362 509 207 54 443 -54 542 -248 18 -34 29 -51 25
-37 -28 107 -156 251 -257 289 -14 6 -68 35 -121 65 -53 31 -99 56 -101 56 -8
0 -265 154 -438 262 -170 106 -434 238 -476 238 -15 0 -36 -7 -48 -15z m1415
-2432 c-10 -2 -26 -2 -35 0 -10 3 -2 5 17 5 19 0 27 -2 18 -5z"/>
<path d="M1961 1624 c0 -11 3 -14 6 -6 3 7 2 16 -1 19 -3 4 -6 -2 -5 -13z"/>
<path d="M2860 972 c0 -5 -15 -20 -34 -31 -30 -19 -49 -21 -202 -22 l-169 0
-89 -110 c-48 -61 -86 -112 -84 -114 2 -2 41 43 87 101 l84 104 162 0 c90 0
176 5 193 11 30 10 69 55 58 67 -3 3 -6 0 -6 -6z"/>
</g>
</svg>
