<?xml version="1.0" standalone="no"?>
<!DOCTYPE svg PUBLIC "-//W3C//DTD SVG 20010904//EN"
 "http://www.w3.org/TR/2001/REC-SVG-20010904/DTD/svg10.dtd">
<svg version="1.0" xmlns="http://www.w3.org/2000/svg"
 width="551.000000pt" height="551.000000pt" viewBox="0 0 551.000000 551.000000"
 preserveAspectRatio="xMidYMid meet">
<metadata>
Created by potrace 1.14, written by Peter Selinger 2001-2017
</metadata>
<g transform="translate(0.000000,551.000000) scale(0.100000,-0.100000)"
fill="#000000" stroke="none">
<path d="M1889 5052 c-45 -78 -192 -327 -194 -330 -2 -2 -112 -20 -245 -40
-208 -32 -240 -39 -226 -51 9 -7 87 -88 175 -180 l158 -166 -23 -145 c-26
-158 -54 -339 -54 -351 0 -4 96 47 214 112 l215 119 215 -119 c119 -66 216
-114 216 -108 0 7 -18 120 -40 252 l-39 240 27 29 c15 16 90 94 167 174 77 79
141 147 143 151 1 4 -96 22 -215 40 -120 18 -227 35 -239 38 -14 3 -52 58
-125 184 -57 98 -106 179 -109 179 -3 0 -12 -12 -21 -28z m49 -369 c11 -27 70
-157 131 -291 61 -133 111 -244 111 -247 0 -3 -35 -5 -78 -5 -74 0 -79 1 -90
25 -11 24 -15 25 -107 25 -93 0 -96 -1 -105 -25 -9 -24 -14 -25 -85 -25 -41 0
-75 3 -75 6 0 3 46 106 101 227 56 122 115 252 132 290 16 37 33 67 37 67 4 0
16 -21 28 -47z"/>
<path d="M1882 4369 c-12 -29 -20 -54 -18 -56 2 -2 22 -3 44 -1 l40 3 -22 53
-23 53 -21 -52z"/>
<path d="M3524 4899 c-54 -95 -106 -180 -114 -190 -11 -13 -69 -25 -248 -52
-128 -19 -234 -36 -236 -38 -3 -2 -16 -128 -30 -279 -15 -151 -31 -320 -36
-375 -6 -55 -26 -278 -45 -495 -19 -217 -39 -438 -45 -490 -6 -52 -35 -372
-65 -710 -30 -338 -57 -634 -60 -657 l-6 -43 78 0 79 0 120 178 c67 97 249
368 405 602 271 403 289 434 369 610 46 102 147 321 225 488 l142 303 -14 81
-14 80 146 345 c80 190 145 347 143 348 -2 2 -106 22 -231 45 -126 22 -234 43
-240 46 -7 2 -25 28 -41 57 -17 28 -64 112 -107 185 l-76 133 -99 -172z m229
-288 c21 -12 45 -37 53 -54 22 -42 20 -111 -6 -146 l-20 -29 26 -16 c40 -27
64 -75 64 -129 0 -66 -28 -117 -81 -147 -41 -23 -55 -25 -206 -28 l-163 -4 0
284 c0 157 3 288 8 292 4 5 70 6 147 4 126 -3 144 -6 178 -27z"/>
<path d="M3570 4465 l0 -36 48 3 c45 3 47 4 47 33 0 29 -2 30 -47 33 l-48 3 0
-36z"/>
<path d="M3570 4250 l0 -60 48 0 c63 0 92 21 92 66 0 41 -24 54 -96 54 l-44 0
0 -60z"/>
<path d="M866 3766 l-58 -113 -130 -21 c-71 -11 -132 -23 -135 -26 -5 -5 51
-72 163 -196 l23 -25 -19 -110 c-11 -61 -22 -122 -24 -137 -5 -24 16 -47 212
-230 119 -112 300 -282 402 -378 102 -96 251 -236 330 -310 80 -74 199 -187
265 -250 66 -64 186 -178 266 -253 l146 -137 87 0 86 0 -24 53 c-27 60 -154
336 -249 542 -35 77 -99 215 -141 307 -71 154 -99 199 -348 565 -417 612 -373
555 -443 569 -33 6 -81 15 -108 18 -47 7 -49 9 -140 127 -50 65 -94 119 -97
119 -3 0 -31 -51 -64 -114z m143 -154 c55 -27 62 -49 26 -77 -27 -23 -31 -23
-47 -8 -25 22 -77 21 -94 -2 -21 -28 -18 -91 6 -115 26 -26 51 -25 84 1 25 20
27 20 56 2 39 -22 38 -34 -5 -72 -30 -26 -44 -31 -86 -31 -81 0 -137 40 -159
115 -39 132 98 249 219 187z"/>
<path d="M4513 3753 l-58 -98 -60 -11 c-33 -6 -95 -17 -138 -24 l-78 -13 101
-102 c84 -86 100 -107 95 -126 -9 -39 -43 -254 -40 -257 1 -2 57 27 123 63
l121 65 117 -64 c65 -36 120 -63 122 -61 2 2 -6 59 -17 128 -12 68 -21 131
-21 139 0 8 36 53 80 101 44 49 78 92 76 96 -3 4 -57 20 -121 36 l-115 27 -64
100 -64 100 -59 -99z m137 -165 c54 -37 73 -70 74 -130 0 -61 -22 -108 -67
-142 -22 -17 -46 -22 -113 -25 l-84 -3 0 161 0 161 79 0 c64 0 84 -4 111 -22z"/>
<path d="M4540 3457 c0 -41 3 -76 6 -79 8 -9 66 10 76 24 4 7 8 30 8 51 0 44
-28 77 -65 77 -24 0 -25 -2 -25 -73z"/>
<path d="M544 2670 c-31 -61 -63 -114 -72 -119 -10 -4 -72 -16 -140 -26 l-122
-18 99 -101 99 -101 -23 -140 c-12 -77 -21 -141 -20 -143 1 -2 53 25 116 59
62 34 117 62 123 62 6 0 62 -28 125 -62 62 -34 115 -60 117 -58 2 2 -5 57 -16
123 -11 65 -20 127 -20 138 0 10 43 65 95 122 l96 103 -33 6 c-61 10 -223 35
-230 35 -4 0 -34 52 -68 115 -34 63 -63 115 -65 115 -2 0 -30 -50 -61 -110z
m164 -197 l-3 -38 -62 -3 c-46 -2 -63 -7 -63 -17 0 -10 16 -15 53 -17 l52 -3
0 -35 0 -35 -52 -3 c-45 -3 -53 -6 -53 -23 0 -17 7 -19 65 -19 l65 0 0 -40 0
-41 -107 3 -108 3 -3 153 -3 152 111 0 111 0 -3 -37z"/>
<path d="M4855 2748 c-43 -27 -434 -281 -910 -593 -77 -50 -189 -123 -250
-162 -60 -39 -229 -148 -375 -243 l-265 -172 177 6 c195 7 404 25 663 57 127
16 201 31 295 61 521 164 960 305 965 310 2 2 -7 69 -19 148 l-24 145 99 101
99 101 -122 18 c-68 10 -130 22 -140 26 -9 5 -41 58 -72 119 -31 60 -60 110
-64 110 -4 0 -29 -14 -57 -32z m183 -275 l-3 -38 -57 -3 c-57 -3 -58 -4 -58
-32 0 -30 1 -30 56 -30 l55 0 -3 -37 -3 -38 -52 -3 -53 -3 0 -45 0 -44 -45 0
-45 0 0 155 0 155 106 0 105 0 -3 -37z"/>
<path d="M4130 1439 c-107 -15 -261 -38 -342 -50 l-148 -22 6 -71 c4 -39 7
-72 8 -72 0 -1 77 9 170 23 92 13 170 22 173 20 2 -3 -83 -132 -190 -288 -107
-156 -193 -285 -192 -287 3 -3 756 107 773 113 11 4 12 19 7 68 -4 34 -9 64
-11 68 -1 3 -85 -7 -186 -21 -101 -14 -184 -22 -186 -18 -3 7 139 221 315 476
l64 92 -33 -1 c-18 -1 -121 -14 -228 -30z"/>
<path d="M1425 1395 c-130 -28 -234 -95 -278 -179 -32 -60 -30 -164 3 -229 49
-97 186 -199 318 -238 l42 -12 0 -64 c0 -59 2 -63 23 -63 12 -1 56 -5 97 -10
86 -10 90 -7 90 62 l0 47 58 6 c307 33 457 253 315 463 -113 167 -430 270
-668 217z m234 -145 c152 -25 238 -111 229 -227 -7 -77 -55 -135 -125 -149
l-33 -6 0 60 0 60 -72 7 c-40 3 -85 8 -100 11 -26 5 -27 4 -34 -55 l-6 -60
-38 19 c-69 35 -106 107 -97 187 8 74 58 126 144 149 60 16 56 16 132 4z"/>
<path d="M3263 1353 l-41 -4 4 -162 c3 -89 7 -240 10 -336 l6 -173 62 6 c33 3
90 7 125 8 l64 1 -6 201 c-4 111 -7 261 -7 334 l0 132 -87 -2 c-49 -1 -107 -3
-130 -5z"/>
<path d="M2250 1110 c0 -186 3 -238 16 -268 47 -114 181 -173 394 -174 121 -1
204 14 275 49 62 31 91 57 118 108 20 37 22 57 25 278 l4 237 -131 0 -131 0 0
-229 0 -229 -29 -30 c-64 -63 -215 -56 -269 13 -21 27 -22 37 -22 251 l0 224
-125 0 -125 0 0 -230z"/>
<path d="M1145 549 c83 -44 176 -94 208 -110 l57 -29 0 68 0 69 -77 12 c-43 7
-133 25 -201 42 -68 16 -127 29 -130 29 -4 0 61 -36 143 -81z"/>
<path d="M4440 619 c-14 -6 -99 -25 -190 -43 l-165 -33 -3 -67 c-2 -38 1 -66
5 -64 5 1 87 44 183 95 96 50 189 99 205 107 23 12 25 16 10 15 -11 0 -31 -5
-45 -10z"/>
</g>
</svg>
